<?xml version="1.0" encoding="UTF-8"?><svg id="Layer_2" xmlns="http://www.w3.org/2000/svg" viewBox="0 0 1152.21 1152.01"><defs><style>.cls-1{stroke-width:0px;}</style></defs><g id="Layer_1-2"><path class="cls-1" d="m1152.04,510.29c-.11-20.2-7.88-29.43-28.46-33.47-40.38-7.92-80.8-15.66-121.34-22.74-9.17-1.6-13.13-5.57-16.25-14.17-7.25-19.99-15.6-39.63-24.53-58.94-3.36-7.25-3.27-12.08,1.37-18.71,23.9-34.14,47.32-68.62,70.71-103.12,12.38-18.26,11.25-30.74-4.22-46.35-29.71-29.97-59.58-59.78-89.51-89.53-16.22-16.12-28.65-17.2-47.52-4.34-34.03,23.19-68.15,46.26-101.83,69.95-7.1,5-12.24,4.93-19.94,1.38-19.77-9.11-39.86-17.78-60.46-24.75-9.6-3.25-13.14-8.07-14.76-17.31-6.96-39.55-14.33-79.03-21.88-118.47-4.17-21.79-13.64-29.55-35.77-29.62-43.2-.14-86.39-.2-129.59.06-20.21.12-29.57,8.42-33.42,28.55-7.81,40.91-15.91,81.77-23.01,122.8-1.53,8.86-5.56,12.34-13.29,15.24-18.99,7.13-38.15,14.2-56.17,23.38-9.7,4.94-15.95,3.57-24.01-2.07-32.12-22.47-64.52-44.53-96.93-66.57-21.14-14.37-31.94-13.35-49.67,4.33-29.18,29.1-58.32,58.23-87.43,87.4-17.02,17.06-18.22,28.82-4.81,48.5,22.9,33.63,45.76,67.28,69.02,100.66,4.74,6.81,5.42,12.02,1.66,19.94-8.92,18.76-16.88,38.05-23.84,57.62-3.08,8.66-7.11,12.57-16.25,14.17-40.52,7.09-80.94,14.83-121.32,22.72-20.55,4.01-28.28,13.16-28.39,33.49-.24,43.68-.24,87.37-.01,131.06.1,20.27,8.04,29.55,28.4,33.5,40.41,7.84,80.83,15.69,121.39,22.73,9.29,1.61,13.01,5.7,16.1,14.25,7.23,20,15.42,39.72,24.51,58.95,3.72,7.88,3.29,13.09-1.56,20.03-23.31,33.34-46.17,67-69.03,100.66-12.46,18.35-11.24,30.23,4.58,46.11,29.78,29.9,59.6,59.75,89.53,89.51,16.47,16.38,27.88,17.46,47.35,4.25,33.26-22.56,66.5-45.15,99.38-68.26,7.54-5.3,13.13-5.12,21.33-1.19,18.29,8.74,37.22,16.21,56.21,23.35,7.72,2.91,11.77,6.33,13.31,15.21,7.09,41.03,15.18,81.89,22.98,122.8,3.82,20.05,13.32,28.34,33.44,28.59,21.84.27,43.69.06,65.54.06,19.36.01,38.73.04,58.09,0,30.22-.05,37.48-6.29,42.77-35.54,6.97-38.54,13.97-77.08,21.82-115.45,1.02-5,6.34-10.88,11.16-13.04,20.76-9.31,42.33-16.83,63.05-26.21,7.43-3.36,12.25-2.91,18.69,1.57,33.38,23.26,67.08,46.06,100.66,69.03,20.43,13.98,31.95,12.94,49.7-4.76,29.18-29.09,58.34-58.21,87.41-87.41,16.99-17.06,17.99-28.36,4.25-48.53-22.34-32.8-44.52-65.73-67.47-98.11-6.04-8.52-5.82-14.82-1.38-24.01,9.04-18.69,16.79-38.08,23.79-57.64,3.06-8.54,6.78-12.53,16.13-14.14,40.55-7.01,80.95-14.95,121.34-22.83,20.38-3.98,28.27-13.21,28.38-33.51.24-43.68.23-87.37,0-131.06Zm-346.11,53.07c0,104.63-69.16,193.1-164.26,222.21l-66.17,127.75-65.54-126.41c-97.4-27.66-168.75-117.27-168.75-223.54,0-34.42,7.49-67.1,20.93-96.48-15.19-39.96-30.38-79.92-45.56-119.88,15.62,7.14,37.34,15.18,64.17,19.7,25.86,4.36,48.26,4.06,65.01,2.6,36.67-24.2,80.6-38.31,127.82-38.31s91.05,14.07,127.69,38.22c15.02,2.04,38.09,3.33,65.26-2.52,28.73-6.18,50.09-17.79,62.96-26.1-14.72,42.32-29.44,84.64-44.16,126.96,13.24,29.21,20.61,61.65,20.61,95.8Z"/><path class="cls-1" d="m576.97,496.04c-100.1-.28-158.4,71.54-165.19,80.21,6.54,8.29,67.51,82.9,170.05,80.24,96.02-2.49,151.69-70.74,159.17-80.24-6.9-8.81-64.63-79.94-164.02-80.21Zm2.6,114.08c-18.81,0-34.06-15.25-34.06-34.06s15.25-34.06,34.06-34.06,34.06,15.25,34.06,34.06-15.25,34.06-34.06,34.06Z"/></g></svg>